<?xml version="1.0" encoding="utf-8"?>
<!-- Generator: Adobe Illustrator 16.0.0, SVG Export Plug-In . SVG Version: 6.00 Build 0)  -->
<!DOCTYPE svg PUBLIC "-//W3C//DTD SVG 1.1//EN" "http://www.w3.org/Graphics/SVG/1.1/DTD/svg11.dtd">
<svg version="1.1" id="Calque_1" xmlns="http://www.w3.org/2000/svg" xmlns:xlink="http://www.w3.org/1999/xlink" x="0px" y="0px"
	 width="178.829px" height="143.931px" viewBox="0 0 178.829 143.931" enable-background="new 0 0 178.829 143.931"
	 xml:space="preserve">
<g>
	<path fill="#EB833F" d="M93.633,136.073c-0.024-12.022,0.164-25.216,3.021-36.507c0.198-0.782,0.024-1.612-0.472-2.249
		c-0.496-0.637-1.258-1.009-2.064-1.009H27.337L2.614,92.69V52.966l24.812-5.343h66.692c0.807,0,1.568-0.372,2.064-1.009
		c0.496-0.637,0.669-1.467,0.472-2.249c-2.855-11.283-3.045-24.465-3.021-36.48c1.535,1.706,3.531,3.813,6.125,6.43
		c6.883,6.941,15.659,15.105,24.71,22.987c12.045,10.489,32.792,27.622,47.437,34.704c-15.3,7.591-37.572,26.236-47.332,34.705
		c-9.097,7.894-17.895,16.038-24.772,22.932C97.186,132.265,95.176,134.372,93.633,136.073z"/>
	<path fill="#F9BC28" d="M96.272,14.501c0.517,0.53,1.059,1.081,1.628,1.656c6.927,6.985,15.752,15.195,24.851,23.118
		c10.974,9.556,29.115,24.572,43.591,32.741c-14.393,8.229-32.511,23.199-43.482,32.719c-9.143,7.934-17.989,16.123-24.909,23.06
		c-0.588,0.589-1.147,1.155-1.679,1.696c0.107-9.96,0.646-20.298,2.919-29.283c0.396-1.564,0.048-3.224-0.943-4.498
		c-0.992-1.273-2.515-2.018-4.129-2.018h-66.59L5.229,90.429V55.078l22.475-4.839h66.414c1.614,0,3.137-0.745,4.129-2.018
		c0.991-1.273,1.339-2.933,0.943-4.498C96.921,34.757,96.381,24.442,96.272,14.501 M91.038,0c0,14.408-0.493,30.887,3.081,45.007
		H27.147l-27.149,5.846v44.098l27.149,3.973h66.971c-3.573,14.12-3.081,30.599-3.081,45.007
		c0.501-5.239,64.236-64.758,87.794-71.966C155.002,64.985,91.539,5.239,91.038,0L91.038,0z"/>
</g>
<polygon fill="#F9BC28" points="135.723,61.193 135.723,83.214 150.994,72.203 "/>
<polygon fill="#F9BC28" points="124.409,48.157 105.226,28.973 105.083,48.299 "/>
<polygon fill="#F9BC28" points="105.226,115.177 123.602,96.801 105.089,96.665 "/>
<g>
	<path fill="#F9BC28" d="M111.501,65.927c4.58,0,8.305,3.139,8.305,6.997c0,3.858-3.726,6.997-8.305,6.997
		c-4.579,0-8.304-3.139-8.304-6.997C103.197,69.066,106.922,65.927,111.501,65.927 M111.501,58.623
		c-9.374,0-16.974,6.402-16.974,14.3c0,7.898,7.601,14.301,16.974,14.301c9.375,0,16.975-6.402,16.975-14.301
		C128.476,65.025,120.877,58.623,111.501,58.623L111.501,58.623z"/>
	<path fill="#F9BC28" d="M85.31,65.927c4.58,0,8.305,3.139,8.305,6.997c0,3.858-3.725,6.997-8.305,6.997
		c-4.579,0-8.304-3.139-8.304-6.997C77.006,69.066,80.731,65.927,85.31,65.927 M85.31,58.623c-9.375,0-16.974,6.402-16.974,14.3
		c0,7.898,7.6,14.301,16.974,14.301c9.375,0,16.975-6.402,16.975-14.301C102.285,65.025,94.685,58.623,85.31,58.623L85.31,58.623z"
		/>
	<path fill="#F9BC28" d="M59.438,65.927c4.579,0,8.304,3.139,8.304,6.997c0,3.858-3.725,6.997-8.304,6.997
		c-4.58,0-8.305-3.139-8.305-6.997C51.134,69.066,54.859,65.927,59.438,65.927 M59.438,58.623c-9.375,0-16.975,6.402-16.975,14.3
		c0,7.898,7.6,14.301,16.975,14.301c9.375,0,16.974-6.402,16.974-14.301C76.413,65.025,68.813,58.623,59.438,58.623L59.438,58.623z"
		/>
	<path fill="#F9BC28" d="M30.691,65.812c4.58,0,8.305,3.139,8.305,6.997s-3.725,6.997-8.305,6.997c-4.579,0-8.304-3.139-8.304-6.997
		S26.112,65.812,30.691,65.812 M30.691,58.508c-9.375,0-16.974,6.402-16.974,14.3c0,7.898,7.6,14.301,16.974,14.301
		c9.375,0,16.975-6.403,16.975-14.301C47.666,64.91,40.066,58.508,30.691,58.508L30.691,58.508z"/>
	<path fill="#F9BC28" d="M5.229,58.623v7.304c4.58,0,8.305,3.139,8.305,6.997c0,3.858-3.726,6.997-8.305,6.997v7.304
		c9.375,0,16.975-6.402,16.975-14.301C22.204,65.025,14.604,58.623,5.229,58.623z"/>
</g>
</svg>
